<svg width="22" height="22" viewBox="0 0 22 22" fill="none" xmlns="http://www.w3.org/2000/svg">
	<path d="M19.3036 0.324219H2.69579C1.39089 0.324219 0.323242 1.39187 0.323242 2.69677V19.3046C0.323242 20.6095 1.39089 21.6772 2.69579 21.6772H19.3036C20.6085 21.6772 21.6762 20.6095 21.6762 19.3046V2.69677C21.6762 1.39187 20.6085 0.324219 19.3036 0.324219ZM1.98403 4.65412L4.65314 1.985C4.8904 1.74775 5.24628 1.74775 5.48354 1.985L6.31393 2.8154C6.55118 3.05265 6.55118 3.40853 6.31393 3.64579L3.64481 6.31491C3.40756 6.55216 3.05167 6.55216 2.81442 6.31491L1.98403 5.48451C1.74677 5.30657 1.74677 4.89138 1.98403 4.65412ZM2.28059 11.2379L10.8811 2.63745C11.1183 2.4002 11.4742 2.4002 11.7115 2.63745L12.5419 3.46785C12.7791 3.7051 12.7791 4.06098 12.5419 4.29824L3.94138 12.8987C3.70412 13.136 3.34824 13.136 3.11099 12.8987L2.28059 12.0683C2.04334 11.8311 2.04334 11.4752 2.28059 11.2379ZM3.40756 19.4232L2.57716 18.5928C2.33991 18.3556 2.33991 17.9997 2.57716 17.7625L17.7022 2.63745C17.9394 2.4002 18.2953 2.4002 18.5326 2.63745L19.3629 3.46785C19.6002 3.7051 19.6002 4.06098 19.3629 4.29824L4.29726 19.4232C4.06001 19.6605 3.64481 19.6605 3.40756 19.4232ZM9.69481 19.8977L8.86442 19.0674C8.62716 18.8301 8.62716 18.4742 8.86442 18.237L17.8801 9.22128C18.1174 8.98402 18.4732 8.98402 18.7105 9.22128L19.5409 10.0517C19.7781 10.2889 19.7781 10.6448 19.5409 10.8821L10.5252 19.8977C10.2879 20.135 9.93207 20.135 9.69481 19.8977ZM20.0747 17.0507L17.5835 19.5419C17.3463 19.7791 16.9904 19.7791 16.7531 19.5419L15.9228 18.7115C15.6855 18.4742 15.6855 18.1183 15.9228 17.8811L18.4139 15.3899C18.6512 15.1526 19.0071 15.1526 19.2443 15.3899L20.0747 16.2203C20.312 16.3982 20.312 16.8134 20.0747 17.0507Z" fill="currentColor" />
</svg>
