<svg width="21" height="23" viewBox="0 0 21 23" fill="none" xmlns="http://www.w3.org/2000/svg">
<path d="M18.5577 8.12364H20.1868V21.64C20.1868 22.3587 19.5859 22.9328 18.8451 22.9328H1.97082C1.2329 22.9328 0.62915 22.3578 0.62915 21.6419V3.60989C0.62915 2.89594 1.23386 2.31998 1.96698 2.31998H14.1321V3.94914H2.25832V21.3036H18.5577V8.12364ZM3.30098 15.6782H9.21965V17.5891H3.30098V15.6782ZM3.30098 11.6714H13.2274V13.5823H3.30098V11.6714ZM15.6587 9.51994C15.5272 9.72098 15.3238 9.86413 15.0902 9.92006C14.8566 9.976 14.6104 9.94048 14.4022 9.82078C14.1939 9.70109 14.0393 9.50628 13.97 9.27627C13.9007 9.04626 13.922 8.79846 14.0295 8.58364L18.0603 1.13356C18.1922 0.931563 18.3966 0.78794 18.6314 0.732354C18.8662 0.676768 19.1133 0.713464 19.3218 0.834864C19.5303 0.956264 19.6842 1.15309 19.7517 1.3847C19.8192 1.61631 19.7952 1.86501 19.6847 2.07944L15.6597 9.51994H15.6587Z" fill="currentColor"/>
</svg>
